<svg xmlns="http://www.w3.org/2000/svg" width="40" height="44" fill="none"><path fill="#fff" d="M36.005 9.154 24.033 1.953a7.448 7.448 0 0 0-7.53 0L4.338 9.154C2.214 10.517.862 13.047.862 15.577v13.041c0 2.53 1.352 5.061 3.476 6.424l11.971 7.396c1.16.779 2.51.973 3.862.973 1.352 0 2.704-.39 3.862-.973l11.972-7.202c2.124-1.362 3.476-3.698 3.476-6.423V15.577c0-2.53-1.352-5.06-3.476-6.423ZM20.171 29.397c-3.861 0-7.144-3.309-7.144-7.202s3.09-7.202 7.144-7.202c4.055 0 7.145 3.115 7.145 7.202 0 3.893-3.283 7.202-7.145 7.202Z"/></svg>